<?xml version="1.0" encoding="UTF-8" standalone="no"?>
<!DOCTYPE svg PUBLIC "-//W3C//DTD SVG 1.1//EN"
 "http://www.w3.org/Graphics/SVG/1.1/DTD/svg11.dtd">
<!-- Generated by graphviz version 2.38.0 (20140413.2041)
 -->
<!-- Title: %3 Pages: 1 -->
<svg width="2813pt" height="352pt"
 viewBox="0.00 0.00 2812.64 352.00" xmlns="http://www.w3.org/2000/svg" xmlns:xlink="http://www.w3.org/1999/xlink">
<g id="graph0" class="graph" transform="scale(1 1) rotate(0) translate(4 348)">
<title>%3</title>
<polygon fill="white" stroke="none" points="-4,4 -4,-348 2808.64,-348 2808.64,4 -4,4"/>
<!-- Rhttps://github.com/Eurohelp/id/Parkings/Antiguo&#45;Berri&#45;Rotatorio -->
<g id="node1" class="node"><title>Rhttps://github.com/Eurohelp/id/Parkings/Antiguo&#45;Berri&#45;Rotatorio</title>
<g id="a_node1"><a xlink:href="https://github.com/Eurohelp/id/Parkings/Antiguo-Berri-Rotatorio" xlink:title="https://github.com/Eurohelp/id/Parkings/Antiguo&#45;Berri&#45;Rotatorio">
<ellipse fill="none" stroke="blue" cx="1008.47" cy="-326" rx="310.045" ry="18"/>
<text text-anchor="middle" x="1008.47" y="-322.3" font-family="Times,serif" font-size="14.00">https://github.com/Eurohelp/id/Parkings/Antiguo&#45;Berri&#45;Rotatorio</text>
</a>
</g>
</g>
<!-- Rhttp://dbpedia.org/resource/Category:Parking -->
<g id="node2" class="node"><title>Rhttp://dbpedia.org/resource/Category:Parking</title>
<g id="a_node2"><a xlink:href="http://dbpedia.org/resource/Category:Parking" xlink:title="http://dbpedia.org/resource/Category:Parking">
<ellipse fill="none" stroke="blue" cx="433.469" cy="-238.5" rx="223.66" ry="18"/>
<text text-anchor="middle" x="433.469" y="-234.8" font-family="Times,serif" font-size="14.00">http://dbpedia.org/resource/Category:Parking</text>
</a>
</g>
</g>
<!-- Rhttps://github.com/Eurohelp/id/Parkings/Antiguo&#45;Berri&#45;Rotatorio&#45;&gt;Rhttp://dbpedia.org/resource/Category:Parking -->
<g id="edge1" class="edge"><title>Rhttps://github.com/Eurohelp/id/Parkings/Antiguo&#45;Berri&#45;Rotatorio&#45;&gt;Rhttp://dbpedia.org/resource/Category:Parking</title>
<path fill="none" stroke="black" d="M901.328,-309.068C799.762,-293.966 647.822,-271.373 544.876,-256.066"/>
<polygon fill="black" stroke="black" points="545.164,-252.57 534.758,-254.561 544.134,-259.494 545.164,-252.57"/>
<text text-anchor="middle" x="802.469" y="-278.8" font-family="Times,serif" font-size="14.00">rdf:type</text>
</g>
<!-- LAntiguo Berri -->
<g id="node3" class="node"><title>LAntiguo Berri</title>
<polygon fill="none" stroke="black" points="675.469,-220.5 675.469,-256.5 789.469,-256.5 789.469,-220.5 675.469,-220.5"/>
<text text-anchor="middle" x="732.469" y="-234.8" font-family="Times,serif" font-size="14.00">Antiguo Berri</text>
</g>
<!-- Rhttps://github.com/Eurohelp/id/Parkings/Antiguo&#45;Berri&#45;Rotatorio&#45;&gt;LAntiguo Berri -->
<g id="edge2" class="edge"><title>Rhttps://github.com/Eurohelp/id/Parkings/Antiguo&#45;Berri&#45;Rotatorio&#45;&gt;LAntiguo Berri</title>
<path fill="none" stroke="black" d="M954.27,-308.21C909.181,-294.242 844.882,-274.324 797.114,-259.526"/>
<polygon fill="black" stroke="black" points="798.077,-256.16 787.489,-256.544 796.005,-262.846 798.077,-256.16"/>
</g>
<!-- L489 -->
<g id="node4" class="node"><title>L489</title>
<polygon fill="none" stroke="black" points="807.469,-220.5 807.469,-256.5 861.469,-256.5 861.469,-220.5 807.469,-220.5"/>
<text text-anchor="middle" x="834.469" y="-234.8" font-family="Times,serif" font-size="14.00">489</text>
</g>
<!-- Rhttps://github.com/Eurohelp/id/Parkings/Antiguo&#45;Berri&#45;Rotatorio&#45;&gt;L489 -->
<g id="edge3" class="edge"><title>Rhttps://github.com/Eurohelp/id/Parkings/Antiguo&#45;Berri&#45;Rotatorio&#45;&gt;L489</title>
<path fill="none" stroke="black" d="M968.589,-308.108C939.125,-294.379 899.459,-274.95 870.855,-260.27"/>
<polygon fill="black" stroke="black" points="872.099,-256.974 861.609,-255.489 868.884,-263.192 872.099,-256.974"/>
</g>
<!-- Rhttps://github.com/Eurohelp/id/Parkings/Antiguo&#45;Berri&#45;Rotatorio&#45;&gt;L489 -->
<g id="edge6" class="edge"><title>Rhttps://github.com/Eurohelp/id/Parkings/Antiguo&#45;Berri&#45;Rotatorio&#45;&gt;L489</title>
<path fill="none" stroke="black" d="M979.202,-307.903C949.224,-292.335 902.806,-269.564 870.577,-254.639"/>
<polygon fill="black" stroke="black" points="872.025,-251.453 861.477,-250.463 869.106,-257.815 872.025,-251.453"/>
</g>
<!-- LRotatorio -->
<g id="node5" class="node"><title>LRotatorio</title>
<polygon fill="none" stroke="black" points="879.969,-220.5 879.969,-256.5 962.969,-256.5 962.969,-220.5 879.969,-220.5"/>
<text text-anchor="middle" x="921.469" y="-234.8" font-family="Times,serif" font-size="14.00">Rotatorio</text>
</g>
<!-- Rhttps://github.com/Eurohelp/id/Parkings/Antiguo&#45;Berri&#45;Rotatorio&#45;&gt;LRotatorio -->
<g id="edge4" class="edge"><title>Rhttps://github.com/Eurohelp/id/Parkings/Antiguo&#45;Berri&#45;Rotatorio&#45;&gt;LRotatorio</title>
<path fill="none" stroke="black" d="M990.864,-307.698C978.128,-295.182 960.737,-278.09 946.55,-264.149"/>
<polygon fill="black" stroke="black" points="948.635,-261.29 939.049,-256.776 943.728,-266.282 948.635,-261.29"/>
</g>
<!-- L0 -->
<g id="node6" class="node"><title>L0</title>
<polygon fill="none" stroke="black" points="981.469,-220.5 981.469,-256.5 1035.47,-256.5 1035.47,-220.5 981.469,-220.5"/>
<text text-anchor="middle" x="1008.47" y="-234.8" font-family="Times,serif" font-size="14.00">0</text>
</g>
<!-- Rhttps://github.com/Eurohelp/id/Parkings/Antiguo&#45;Berri&#45;Rotatorio&#45;&gt;L0 -->
<g id="edge5" class="edge"><title>Rhttps://github.com/Eurohelp/id/Parkings/Antiguo&#45;Berri&#45;Rotatorio&#45;&gt;L0</title>
<path fill="none" stroke="black" d="M1002.92,-307.698C1001.66,-295.993 1001.39,-280.286 1002.12,-266.897"/>
<polygon fill="black" stroke="black" points="1005.62,-267.022 1002.92,-256.776 998.645,-266.469 1005.62,-267.022"/>
</g>
<!-- Rhttps://github.com/Eurohelp/id/Parkings/Antiguo&#45;Berri&#45;Rotatorio&#45;&gt;L0 -->
<g id="edge7" class="edge"><title>Rhttps://github.com/Eurohelp/id/Parkings/Antiguo&#45;Berri&#45;Rotatorio&#45;&gt;L0</title>
<path fill="none" stroke="black" d="M1014.02,-307.698C1015.28,-295.993 1015.55,-280.286 1014.82,-266.897"/>
<polygon fill="black" stroke="black" points="1018.29,-266.469 1014.02,-256.776 1011.32,-267.022 1018.29,-266.469"/>
</g>
<!-- L179 -->
<g id="node7" class="node"><title>L179</title>
<polygon fill="none" stroke="black" points="1053.47,-220.5 1053.47,-256.5 1107.47,-256.5 1107.47,-220.5 1053.47,-220.5"/>
<text text-anchor="middle" x="1080.47" y="-234.8" font-family="Times,serif" font-size="14.00">179</text>
</g>
<!-- Rhttps://github.com/Eurohelp/id/Parkings/Antiguo&#45;Berri&#45;Rotatorio&#45;&gt;L179 -->
<g id="edge8" class="edge"><title>Rhttps://github.com/Eurohelp/id/Parkings/Antiguo&#45;Berri&#45;Rotatorio&#45;&gt;L179</title>
<path fill="none" stroke="black" d="M1023.04,-307.698C1033.48,-295.298 1047.71,-278.406 1059.39,-264.537"/>
<polygon fill="black" stroke="black" points="1062.16,-266.68 1065.92,-256.776 1056.8,-262.171 1062.16,-266.68"/>
</g>
<!-- Rhttps://github.com/Eurohelp/id/Parkings/fares/Antiguo&#45;Berri -->
<g id="node8" class="node"><title>Rhttps://github.com/Eurohelp/id/Parkings/fares/Antiguo&#45;Berri</title>
<g id="a_node8"><a xlink:href="https://github.com/Eurohelp/id/Parkings/fares/Antiguo-Berri" xlink:title="https://github.com/Eurohelp/id/Parkings/fares/Antiguo&#45;Berri">
<ellipse fill="none" stroke="blue" cx="1415.47" cy="-238.5" rx="289.749" ry="18"/>
<text text-anchor="middle" x="1415.47" y="-234.8" font-family="Times,serif" font-size="14.00">https://github.com/Eurohelp/id/Parkings/fares/Antiguo&#45;Berri</text>
</a>
</g>
</g>
<!-- Rhttps://github.com/Eurohelp/id/Parkings/Antiguo&#45;Berri&#45;Rotatorio&#45;&gt;Rhttps://github.com/Eurohelp/id/Parkings/fares/Antiguo&#45;Berri -->
<g id="edge9" class="edge"><title>Rhttps://github.com/Eurohelp/id/Parkings/Antiguo&#45;Berri&#45;Rotatorio&#45;&gt;Rhttps://github.com/Eurohelp/id/Parkings/fares/Antiguo&#45;Berri</title>
<path fill="none" stroke="black" d="M1086.94,-308.515C1155.89,-294.032 1256.09,-272.982 1327.68,-257.943"/>
<polygon fill="black" stroke="black" points="1328.52,-261.343 1337.58,-255.862 1327.08,-254.493 1328.52,-261.343"/>
</g>
<!-- L43.310188 -->
<g id="node9" class="node"><title>L43.310188</title>
<polygon fill="none" stroke="black" points="1722.97,-220.5 1722.97,-256.5 1815.97,-256.5 1815.97,-220.5 1722.97,-220.5"/>
<text text-anchor="middle" x="1769.47" y="-234.8" font-family="Times,serif" font-size="14.00">43.310188</text>
</g>
<!-- Rhttps://github.com/Eurohelp/id/Parkings/Antiguo&#45;Berri&#45;Rotatorio&#45;&gt;L43.310188 -->
<g id="edge10" class="edge"><title>Rhttps://github.com/Eurohelp/id/Parkings/Antiguo&#45;Berri&#45;Rotatorio&#45;&gt;L43.310188</title>
<path fill="none" stroke="black" d="M1248.09,-314.56C1382.81,-305.615 1553.79,-289.136 1712.86,-257.11"/>
<polygon fill="black" stroke="black" points="1713.74,-260.504 1722.84,-255.078 1712.34,-253.645 1713.74,-260.504"/>
<text text-anchor="middle" x="1624.97" y="-278.8" font-family="Times,serif" font-size="14.00">geo:lat</text>
</g>
<!-- L&#45;2.007963 -->
<g id="node10" class="node"><title>L&#45;2.007963</title>
<polygon fill="none" stroke="black" points="1833.97,-220.5 1833.97,-256.5 1922.97,-256.5 1922.97,-220.5 1833.97,-220.5"/>
<text text-anchor="middle" x="1878.47" y="-234.8" font-family="Times,serif" font-size="14.00">&#45;2.007963</text>
</g>
<!-- Rhttps://github.com/Eurohelp/id/Parkings/Antiguo&#45;Berri&#45;Rotatorio&#45;&gt;L&#45;2.007963 -->
<g id="edge11" class="edge"><title>Rhttps://github.com/Eurohelp/id/Parkings/Antiguo&#45;Berri&#45;Rotatorio&#45;&gt;L&#45;2.007963</title>
<path fill="none" stroke="black" d="M1287.79,-318.159C1401.54,-313.212 1534.1,-304.688 1653.47,-290 1727.14,-280.935 1747.84,-276.658 1823.75,-257.044"/>
<polygon fill="black" stroke="black" points="1825,-260.336 1833.8,-254.442 1823.25,-253.56 1825,-260.336"/>
<text text-anchor="middle" x="1778.97" y="-278.8" font-family="Times,serif" font-size="14.00">geo:long</text>
</g>
<!-- Rhttps://github.com/Eurohelp/id/Parkings/fares/Antiguo&#45;Berri/fare1/0.60&#45;15 -->
<g id="node11" class="node"><title>Rhttps://github.com/Eurohelp/id/Parkings/fares/Antiguo&#45;Berri/fare1/0.60&#45;15</title>
<g id="a_node11"><a xlink:href="https://github.com/Eurohelp/id/Parkings/fares/Antiguo-Berri/fare1/0.60-15" xlink:title="https://github.com/Eurohelp/id/Parkings/fares/Antiguo&#45;Berri/fare1/0.60&#45;15">
<ellipse fill="none" stroke="blue" cx="874.469" cy="-165" rx="355.537" ry="18"/>
<text text-anchor="middle" x="874.469" y="-161.3" font-family="Times,serif" font-size="14.00">https://github.com/Eurohelp/id/Parkings/fares/Antiguo&#45;Berri/fare1/0.60&#45;15</text>
</a>
</g>
</g>
<!-- Rhttps://github.com/Eurohelp/id/Parkings/fares/Antiguo&#45;Berri&#45;&gt;Rhttps://github.com/Eurohelp/id/Parkings/fares/Antiguo&#45;Berri/fare1/0.60&#45;15 -->
<g id="edge12" class="edge"><title>Rhttps://github.com/Eurohelp/id/Parkings/fares/Antiguo&#45;Berri&#45;&gt;Rhttps://github.com/Eurohelp/id/Parkings/fares/Antiguo&#45;Berri/fare1/0.60&#45;15</title>
<path fill="none" stroke="black" d="M1298.41,-222.03C1212.02,-210.611 1094.41,-195.068 1004.99,-183.25"/>
<polygon fill="black" stroke="black" points="1005.42,-179.777 995.052,-181.936 1004.51,-186.717 1005.42,-179.777"/>
</g>
<!-- Rhttps://github.com/Eurohelp/id/Parkings/fares/Antiguo&#45;Berri/fare2/1.35&#45;30 -->
<g id="node12" class="node"><title>Rhttps://github.com/Eurohelp/id/Parkings/fares/Antiguo&#45;Berri/fare2/1.35&#45;30</title>
<g id="a_node12"><a xlink:href="https://github.com/Eurohelp/id/Parkings/fares/Antiguo-Berri/fare2/1.35-30" xlink:title="https://github.com/Eurohelp/id/Parkings/fares/Antiguo&#45;Berri/fare2/1.35&#45;30">
<ellipse fill="none" stroke="blue" cx="1603.47" cy="-165" rx="355.537" ry="18"/>
<text text-anchor="middle" x="1603.47" y="-161.3" font-family="Times,serif" font-size="14.00">https://github.com/Eurohelp/id/Parkings/fares/Antiguo&#45;Berri/fare2/1.35&#45;30</text>
</a>
</g>
</g>
<!-- Rhttps://github.com/Eurohelp/id/Parkings/fares/Antiguo&#45;Berri&#45;&gt;Rhttps://github.com/Eurohelp/id/Parkings/fares/Antiguo&#45;Berri/fare2/1.35&#45;30 -->
<g id="edge13" class="edge"><title>Rhttps://github.com/Eurohelp/id/Parkings/fares/Antiguo&#45;Berri&#45;&gt;Rhttps://github.com/Eurohelp/id/Parkings/fares/Antiguo&#45;Berri/fare2/1.35&#45;30</title>
<path fill="none" stroke="black" d="M1460.02,-220.555C1486.85,-210.352 1521.19,-197.293 1549.54,-186.509"/>
<polygon fill="black" stroke="black" points="1550.81,-189.773 1558.91,-182.947 1548.32,-183.23 1550.81,-189.773"/>
</g>
<!-- Rhttps://github.com/Eurohelp/id/Parkings/fares/Antiguo&#45;Berri/fare1/Price -->
<g id="node13" class="node"><title>Rhttps://github.com/Eurohelp/id/Parkings/fares/Antiguo&#45;Berri/fare1/Price</title>
<g id="a_node13"><a xlink:href="https://github.com/Eurohelp/id/Parkings/fares/Antiguo-Berri/fare1/Price" xlink:title="https://github.com/Eurohelp/id/Parkings/fares/Antiguo&#45;Berri/fare1/Price">
<ellipse fill="none" stroke="blue" cx="344.469" cy="-92" rx="344.439" ry="18"/>
<text text-anchor="middle" x="344.469" y="-88.3" font-family="Times,serif" font-size="14.00">https://github.com/Eurohelp/id/Parkings/fares/Antiguo&#45;Berri/fare1/Price</text>
</a>
</g>
</g>
<!-- Rhttps://github.com/Eurohelp/id/Parkings/fares/Antiguo&#45;Berri/fare1/0.60&#45;15&#45;&gt;Rhttps://github.com/Eurohelp/id/Parkings/fares/Antiguo&#45;Berri/fare1/Price -->
<g id="edge14" class="edge"><title>Rhttps://github.com/Eurohelp/id/Parkings/fares/Antiguo&#45;Berri/fare1/0.60&#45;15&#45;&gt;Rhttps://github.com/Eurohelp/id/Parkings/fares/Antiguo&#45;Berri/fare1/Price</title>
<path fill="none" stroke="black" d="M755.197,-148.022C671.366,-136.792 559.298,-121.779 473.403,-110.272"/>
<polygon fill="black" stroke="black" points="473.703,-106.781 463.326,-108.922 472.773,-113.719 473.703,-106.781"/>
</g>
<!-- Rhttps://github.com/Eurohelp/id/Parkings/fares/Antiguo&#45;Berri/fare1/Time -->
<g id="node14" class="node"><title>Rhttps://github.com/Eurohelp/id/Parkings/fares/Antiguo&#45;Berri/fare1/Time</title>
<g id="a_node14"><a xlink:href="https://github.com/Eurohelp/id/Parkings/fares/Antiguo-Berri/fare1/Time" xlink:title="https://github.com/Eurohelp/id/Parkings/fares/Antiguo&#45;Berri/fare1/Time">
<ellipse fill="none" stroke="blue" cx="1757.47" cy="-92" rx="343.339" ry="18"/>
<text text-anchor="middle" x="1757.47" y="-88.3" font-family="Times,serif" font-size="14.00">https://github.com/Eurohelp/id/Parkings/fares/Antiguo&#45;Berri/fare1/Time</text>
</a>
</g>
</g>
<!-- Rhttps://github.com/Eurohelp/id/Parkings/fares/Antiguo&#45;Berri/fare1/0.60&#45;15&#45;&gt;Rhttps://github.com/Eurohelp/id/Parkings/fares/Antiguo&#45;Berri/fare1/Time -->
<g id="edge15" class="edge"><title>Rhttps://github.com/Eurohelp/id/Parkings/fares/Antiguo&#45;Berri/fare1/0.60&#45;15&#45;&gt;Rhttps://github.com/Eurohelp/id/Parkings/fares/Antiguo&#45;Berri/fare1/Time</title>
<path fill="none" stroke="black" d="M1055.02,-149.482C1204.57,-137.457 1416.42,-120.423 1568.3,-108.211"/>
<polygon fill="black" stroke="black" points="1568.98,-111.667 1578.67,-107.377 1568.42,-104.69 1568.98,-111.667"/>
</g>
<!-- Rhttps://github.com/Eurohelp/id/Parkings/fares/Antiguo&#45;Berri/fare2/Price -->
<g id="node15" class="node"><title>Rhttps://github.com/Eurohelp/id/Parkings/fares/Antiguo&#45;Berri/fare2/Price</title>
<g id="a_node15"><a xlink:href="https://github.com/Eurohelp/id/Parkings/fares/Antiguo-Berri/fare2/Price" xlink:title="https://github.com/Eurohelp/id/Parkings/fares/Antiguo&#45;Berri/fare2/Price">
<ellipse fill="none" stroke="blue" cx="1051.47" cy="-92" rx="344.439" ry="18"/>
<text text-anchor="middle" x="1051.47" y="-88.3" font-family="Times,serif" font-size="14.00">https://github.com/Eurohelp/id/Parkings/fares/Antiguo&#45;Berri/fare2/Price</text>
</a>
</g>
</g>
<!-- Rhttps://github.com/Eurohelp/id/Parkings/fares/Antiguo&#45;Berri/fare2/1.35&#45;30&#45;&gt;Rhttps://github.com/Eurohelp/id/Parkings/fares/Antiguo&#45;Berri/fare2/Price -->
<g id="edge16" class="edge"><title>Rhttps://github.com/Eurohelp/id/Parkings/fares/Antiguo&#45;Berri/fare2/1.35&#45;30&#45;&gt;Rhttps://github.com/Eurohelp/id/Parkings/fares/Antiguo&#45;Berri/fare2/Price</title>
<path fill="none" stroke="black" d="M1479.93,-148.11C1392.17,-136.822 1274.44,-121.679 1184.59,-110.123"/>
<polygon fill="black" stroke="black" points="1184.98,-106.643 1174.61,-108.839 1184.08,-113.586 1184.98,-106.643"/>
</g>
<!-- Rhttps://github.com/Eurohelp/id/Parkings/fares/Antiguo&#45;Berri/fare2/Time -->
<g id="node16" class="node"><title>Rhttps://github.com/Eurohelp/id/Parkings/fares/Antiguo&#45;Berri/fare2/Time</title>
<g id="a_node16"><a xlink:href="https://github.com/Eurohelp/id/Parkings/fares/Antiguo-Berri/fare2/Time" xlink:title="https://github.com/Eurohelp/id/Parkings/fares/Antiguo&#45;Berri/fare2/Time">
<ellipse fill="none" stroke="blue" cx="2461.47" cy="-92" rx="343.339" ry="18"/>
<text text-anchor="middle" x="2461.47" y="-88.3" font-family="Times,serif" font-size="14.00">https://github.com/Eurohelp/id/Parkings/fares/Antiguo&#45;Berri/fare2/Time</text>
</a>
</g>
</g>
<!-- Rhttps://github.com/Eurohelp/id/Parkings/fares/Antiguo&#45;Berri/fare2/1.35&#45;30&#45;&gt;Rhttps://github.com/Eurohelp/id/Parkings/fares/Antiguo&#45;Berri/fare2/Time -->
<g id="edge17" class="edge"><title>Rhttps://github.com/Eurohelp/id/Parkings/fares/Antiguo&#45;Berri/fare2/1.35&#45;30&#45;&gt;Rhttps://github.com/Eurohelp/id/Parkings/fares/Antiguo&#45;Berri/fare2/Time</title>
<path fill="none" stroke="black" d="M1780.21,-149.375C1925.03,-137.391 2129.34,-120.484 2276.39,-108.316"/>
<polygon fill="black" stroke="black" points="2276.75,-111.797 2286.43,-107.485 2276.18,-104.821 2276.75,-111.797"/>
</g>
<!-- L0.60 -->
<g id="node17" class="node"><title>L0.60</title>
<polygon fill="none" stroke="black" points="317.469,-0.5 317.469,-36.5 371.469,-36.5 371.469,-0.5 317.469,-0.5"/>
<text text-anchor="middle" x="344.469" y="-14.8" font-family="Times,serif" font-size="14.00">0.60</text>
</g>
<!-- Rhttps://github.com/Eurohelp/id/Parkings/fares/Antiguo&#45;Berri/fare1/Price&#45;&gt;L0.60 -->
<g id="edge18" class="edge"><title>Rhttps://github.com/Eurohelp/id/Parkings/fares/Antiguo&#45;Berri/fare1/Price&#45;&gt;L0.60</title>
<path fill="none" stroke="black" d="M344.469,-73.6918C344.469,-65.612 344.469,-55.8014 344.469,-46.7598"/>
<polygon fill="black" stroke="black" points="347.97,-46.6487 344.469,-36.6488 340.97,-46.6488 347.97,-46.6487"/>
</g>
<!-- Rhttp://dbpedia.org/resource/Euro -->
<g id="node18" class="node"><title>Rhttp://dbpedia.org/resource/Euro</title>
<g id="a_node18"><a xlink:href="http://dbpedia.org/resource/Euro" xlink:title="http://dbpedia.org/resource/Euro">
<ellipse fill="none" stroke="blue" cx="698.469" cy="-18.5" rx="163.571" ry="18"/>
<text text-anchor="middle" x="698.469" y="-14.8" font-family="Times,serif" font-size="14.00">http://dbpedia.org/resource/Euro</text>
</a>
</g>
</g>
<!-- Rhttps://github.com/Eurohelp/id/Parkings/fares/Antiguo&#45;Berri/fare1/Price&#45;&gt;Rhttp://dbpedia.org/resource/Euro -->
<g id="edge19" class="edge"><title>Rhttps://github.com/Eurohelp/id/Parkings/fares/Antiguo&#45;Berri/fare1/Price&#45;&gt;Rhttp://dbpedia.org/resource/Euro</title>
<path fill="none" stroke="black" d="M426.129,-74.5067C482.375,-63.1462 556.929,-48.0879 613.811,-36.5991"/>
<polygon fill="black" stroke="black" points="614.749,-39.9804 623.858,-34.5698 613.363,-33.119 614.749,-39.9804"/>
</g>
<!-- L15 -->
<g id="node19" class="node"><title>L15</title>
<polygon fill="none" stroke="black" points="1950.47,-0.5 1950.47,-36.5 2004.47,-36.5 2004.47,-0.5 1950.47,-0.5"/>
<text text-anchor="middle" x="1977.47" y="-14.8" font-family="Times,serif" font-size="14.00">15</text>
</g>
<!-- Rhttps://github.com/Eurohelp/id/Parkings/fares/Antiguo&#45;Berri/fare1/Time&#45;&gt;L15 -->
<g id="edge20" class="edge"><title>Rhttps://github.com/Eurohelp/id/Parkings/fares/Antiguo&#45;Berri/fare1/Time&#45;&gt;L15</title>
<path fill="none" stroke="black" d="M1824.36,-74.2604C1857.25,-65.3583 1897.49,-53.4691 1940.62,-37.0468"/>
<polygon fill="black" stroke="black" points="1942.1,-40.229 1950.16,-33.358 1939.57,-33.7001 1942.1,-40.229"/>
</g>
<!-- Rhttp://dbpedia.org/resource/Minute -->
<g id="node20" class="node"><title>Rhttp://dbpedia.org/resource/Minute</title>
<g id="a_node20"><a xlink:href="http://dbpedia.org/resource/Minute" xlink:title="http://dbpedia.org/resource/Minute">
<ellipse fill="none" stroke="blue" cx="1757.47" cy="-18.5" rx="174.669" ry="18"/>
<text text-anchor="middle" x="1757.47" y="-14.8" font-family="Times,serif" font-size="14.00">http://dbpedia.org/resource/Minute</text>
</a>
</g>
</g>
<!-- Rhttps://github.com/Eurohelp/id/Parkings/fares/Antiguo&#45;Berri/fare1/Time&#45;&gt;Rhttp://dbpedia.org/resource/Minute -->
<g id="edge21" class="edge"><title>Rhttps://github.com/Eurohelp/id/Parkings/fares/Antiguo&#45;Berri/fare1/Time&#45;&gt;Rhttp://dbpedia.org/resource/Minute</title>
<path fill="none" stroke="black" d="M1757.47,-73.6918C1757.47,-65.612 1757.47,-55.8014 1757.47,-46.7598"/>
<polygon fill="black" stroke="black" points="1760.97,-46.6487 1757.47,-36.6488 1753.97,-46.6488 1760.97,-46.6487"/>
</g>
<!-- Rhttps://github.com/Eurohelp/id/Parkings/fares/Antiguo&#45;Berri/fare2/Price&#45;&gt;Rhttp://dbpedia.org/resource/Euro -->
<g id="edge23" class="edge"><title>Rhttps://github.com/Eurohelp/id/Parkings/fares/Antiguo&#45;Berri/fare2/Price&#45;&gt;Rhttp://dbpedia.org/resource/Euro</title>
<path fill="none" stroke="black" d="M970.041,-74.5067C913.954,-63.1462 839.61,-48.0879 782.889,-36.5991"/>
<polygon fill="black" stroke="black" points="783.366,-33.1247 772.87,-34.5698 781.976,-39.9854 783.366,-33.1247"/>
</g>
<!-- L1.35 -->
<g id="node21" class="node"><title>L1.35</title>
<polygon fill="none" stroke="black" points="1024.47,-0.5 1024.47,-36.5 1078.47,-36.5 1078.47,-0.5 1024.47,-0.5"/>
<text text-anchor="middle" x="1051.47" y="-14.8" font-family="Times,serif" font-size="14.00">1.35</text>
</g>
<!-- Rhttps://github.com/Eurohelp/id/Parkings/fares/Antiguo&#45;Berri/fare2/Price&#45;&gt;L1.35 -->
<g id="edge22" class="edge"><title>Rhttps://github.com/Eurohelp/id/Parkings/fares/Antiguo&#45;Berri/fare2/Price&#45;&gt;L1.35</title>
<path fill="none" stroke="black" d="M1051.47,-73.6918C1051.47,-65.612 1051.47,-55.8014 1051.47,-46.7598"/>
<polygon fill="black" stroke="black" points="1054.97,-46.6487 1051.47,-36.6488 1047.97,-46.6488 1054.97,-46.6487"/>
</g>
<!-- Rhttps://github.com/Eurohelp/id/Parkings/fares/Antiguo&#45;Berri/fare2/Time&#45;&gt;Rhttp://dbpedia.org/resource/Minute -->
<g id="edge25" class="edge"><title>Rhttps://github.com/Eurohelp/id/Parkings/fares/Antiguo&#45;Berri/fare2/Time&#45;&gt;Rhttp://dbpedia.org/resource/Minute</title>
<path fill="none" stroke="black" d="M2311.74,-75.7929C2185.69,-62.9909 2007.26,-44.8689 1887.2,-32.676"/>
<polygon fill="black" stroke="black" points="1887.52,-29.1904 1877.22,-31.662 1886.81,-36.1546 1887.52,-29.1904"/>
</g>
<!-- L30 -->
<g id="node22" class="node"><title>L30</title>
<polygon fill="none" stroke="black" points="2434.47,-0.5 2434.47,-36.5 2488.47,-36.5 2488.47,-0.5 2434.47,-0.5"/>
<text text-anchor="middle" x="2461.47" y="-14.8" font-family="Times,serif" font-size="14.00">30</text>
</g>
<!-- Rhttps://github.com/Eurohelp/id/Parkings/fares/Antiguo&#45;Berri/fare2/Time&#45;&gt;L30 -->
<g id="edge24" class="edge"><title>Rhttps://github.com/Eurohelp/id/Parkings/fares/Antiguo&#45;Berri/fare2/Time&#45;&gt;L30</title>
<path fill="none" stroke="black" d="M2461.47,-73.6918C2461.47,-65.612 2461.47,-55.8014 2461.47,-46.7598"/>
<polygon fill="black" stroke="black" points="2464.97,-46.6487 2461.47,-36.6488 2457.97,-46.6488 2464.97,-46.6487"/>
</g>
</g>
</svg>
