<?xml version="1.0" encoding="UTF-8" standalone="no"?>
<!DOCTYPE svg PUBLIC "-//W3C//DTD SVG 1.1//EN"
 "http://www.w3.org/Graphics/SVG/1.1/DTD/svg11.dtd">
<!-- Generated by graphviz version 2.38.0 (20140413.2041)
 -->
<!-- Title: %3 Pages: 1 -->
<svg width="2813pt" height="352pt"
 viewBox="0.00 0.00 2812.64 352.00" xmlns="http://www.w3.org/2000/svg" xmlns:xlink="http://www.w3.org/1999/xlink">
<g id="graph0" class="graph" transform="scale(1 1) rotate(0) translate(4 348)">
<title>%3</title>
<polygon fill="white" stroke="none" points="-4,4 -4,-348 2808.64,-348 2808.64,4 -4,4"/>
<!-- Rhttps://github.com/Eurohelp/id/Parkings/Antiguo&#45;Berri&#45;Rotatorio -->
<g id="node1" class="node"><title>Rhttps://github.com/Eurohelp/id/Parkings/Antiguo&#45;Berri&#45;Rotatorio</title>
<g id="a_node1"><a xlink:href="https://github.com/Eurohelp/id/Parkings/Antiguo-Berri-Rotatorio" xlink:title="https://github.com/Eurohelp/id/Parkings/Antiguo&#45;Berri&#45;Rotatorio">
<ellipse fill="none" stroke="blue" cx="1051.47" cy="-326" rx="310.045" ry="18"/>
<text text-anchor="middle" x="1051.47" y="-322.3" font-family="Times,serif" font-size="14.00">https://github.com/Eurohelp/id/Parkings/Antiguo&#45;Berri&#45;Rotatorio</text>
</a>
</g>
</g>
<!-- Rhttp://dbpedia.org/resource/Category:Parking -->
<g id="node2" class="node"><title>Rhttp://dbpedia.org/resource/Category:Parking</title>
<g id="a_node2"><a xlink:href="http://dbpedia.org/resource/Category:Parking" xlink:title="http://dbpedia.org/resource/Category:Parking">
<ellipse fill="none" stroke="blue" cx="476.469" cy="-238.5" rx="223.66" ry="18"/>
<text text-anchor="middle" x="476.469" y="-234.8" font-family="Times,serif" font-size="14.00">http://dbpedia.org/resource/Category:Parking</text>
</a>
</g>
</g>
<!-- Rhttps://github.com/Eurohelp/id/Parkings/Antiguo&#45;Berri&#45;Rotatorio&#45;&gt;Rhttp://dbpedia.org/resource/Category:Parking -->
<g id="edge1" class="edge"><title>Rhttps://github.com/Eurohelp/id/Parkings/Antiguo&#45;Berri&#45;Rotatorio&#45;&gt;Rhttp://dbpedia.org/resource/Category:Parking</title>
<path fill="none" stroke="black" d="M944.328,-309.068C842.762,-293.966 690.822,-271.373 587.876,-256.066"/>
<polygon fill="black" stroke="black" points="588.164,-252.57 577.758,-254.561 587.134,-259.494 588.164,-252.57"/>
<text text-anchor="middle" x="845.469" y="-278.8" font-family="Times,serif" font-size="14.00">rdf:type</text>
</g>
<!-- LAntiguo Berri -->
<g id="node3" class="node"><title>LAntiguo Berri</title>
<polygon fill="none" stroke="black" points="718.469,-220.5 718.469,-256.5 832.469,-256.5 832.469,-220.5 718.469,-220.5"/>
<text text-anchor="middle" x="775.469" y="-234.8" font-family="Times,serif" font-size="14.00">Antiguo Berri</text>
</g>
<!-- Rhttps://github.com/Eurohelp/id/Parkings/Antiguo&#45;Berri&#45;Rotatorio&#45;&gt;LAntiguo Berri -->
<g id="edge2" class="edge"><title>Rhttps://github.com/Eurohelp/id/Parkings/Antiguo&#45;Berri&#45;Rotatorio&#45;&gt;LAntiguo Berri</title>
<path fill="none" stroke="black" d="M997.27,-308.21C952.181,-294.242 887.882,-274.324 840.114,-259.526"/>
<polygon fill="black" stroke="black" points="841.077,-256.16 830.489,-256.544 839.005,-262.846 841.077,-256.16"/>
</g>
<!-- L489 -->
<g id="node4" class="node"><title>L489</title>
<polygon fill="none" stroke="black" points="850.469,-220.5 850.469,-256.5 904.469,-256.5 904.469,-220.5 850.469,-220.5"/>
<text text-anchor="middle" x="877.469" y="-234.8" font-family="Times,serif" font-size="14.00">489</text>
</g>
<!-- Rhttps://github.com/Eurohelp/id/Parkings/Antiguo&#45;Berri&#45;Rotatorio&#45;&gt;L489 -->
<g id="edge3" class="edge"><title>Rhttps://github.com/Eurohelp/id/Parkings/Antiguo&#45;Berri&#45;Rotatorio&#45;&gt;L489</title>
<path fill="none" stroke="black" d="M1011.59,-308.108C982.125,-294.379 942.459,-274.95 913.855,-260.27"/>
<polygon fill="black" stroke="black" points="915.099,-256.974 904.609,-255.489 911.884,-263.192 915.099,-256.974"/>
</g>
<!-- Rhttps://github.com/Eurohelp/id/Parkings/Antiguo&#45;Berri&#45;Rotatorio&#45;&gt;L489 -->
<g id="edge6" class="edge"><title>Rhttps://github.com/Eurohelp/id/Parkings/Antiguo&#45;Berri&#45;Rotatorio&#45;&gt;L489</title>
<path fill="none" stroke="black" d="M1022.2,-307.903C992.224,-292.335 945.806,-269.564 913.577,-254.639"/>
<polygon fill="black" stroke="black" points="915.025,-251.453 904.477,-250.463 912.106,-257.815 915.025,-251.453"/>
</g>
<!-- LRotatorio -->
<g id="node5" class="node"><title>LRotatorio</title>
<polygon fill="none" stroke="black" points="922.969,-220.5 922.969,-256.5 1005.97,-256.5 1005.97,-220.5 922.969,-220.5"/>
<text text-anchor="middle" x="964.469" y="-234.8" font-family="Times,serif" font-size="14.00">Rotatorio</text>
</g>
<!-- Rhttps://github.com/Eurohelp/id/Parkings/Antiguo&#45;Berri&#45;Rotatorio&#45;&gt;LRotatorio -->
<g id="edge4" class="edge"><title>Rhttps://github.com/Eurohelp/id/Parkings/Antiguo&#45;Berri&#45;Rotatorio&#45;&gt;LRotatorio</title>
<path fill="none" stroke="black" d="M1033.86,-307.698C1021.13,-295.182 1003.74,-278.09 989.55,-264.149"/>
<polygon fill="black" stroke="black" points="991.635,-261.29 982.049,-256.776 986.728,-266.282 991.635,-261.29"/>
</g>
<!-- L0 -->
<g id="node6" class="node"><title>L0</title>
<polygon fill="none" stroke="black" points="1024.47,-220.5 1024.47,-256.5 1078.47,-256.5 1078.47,-220.5 1024.47,-220.5"/>
<text text-anchor="middle" x="1051.47" y="-234.8" font-family="Times,serif" font-size="14.00">0</text>
</g>
<!-- Rhttps://github.com/Eurohelp/id/Parkings/Antiguo&#45;Berri&#45;Rotatorio&#45;&gt;L0 -->
<g id="edge5" class="edge"><title>Rhttps://github.com/Eurohelp/id/Parkings/Antiguo&#45;Berri&#45;Rotatorio&#45;&gt;L0</title>
<path fill="none" stroke="black" d="M1045.92,-307.698C1044.66,-295.993 1044.39,-280.286 1045.12,-266.897"/>
<polygon fill="black" stroke="black" points="1048.62,-267.022 1045.92,-256.776 1041.65,-266.469 1048.62,-267.022"/>
</g>
<!-- Rhttps://github.com/Eurohelp/id/Parkings/Antiguo&#45;Berri&#45;Rotatorio&#45;&gt;L0 -->
<g id="edge7" class="edge"><title>Rhttps://github.com/Eurohelp/id/Parkings/Antiguo&#45;Berri&#45;Rotatorio&#45;&gt;L0</title>
<path fill="none" stroke="black" d="M1057.02,-307.698C1058.28,-295.993 1058.55,-280.286 1057.82,-266.897"/>
<polygon fill="black" stroke="black" points="1061.29,-266.469 1057.02,-256.776 1054.32,-267.022 1061.29,-266.469"/>
</g>
<!-- L179 -->
<g id="node7" class="node"><title>L179</title>
<polygon fill="none" stroke="black" points="1096.47,-220.5 1096.47,-256.5 1150.47,-256.5 1150.47,-220.5 1096.47,-220.5"/>
<text text-anchor="middle" x="1123.47" y="-234.8" font-family="Times,serif" font-size="14.00">179</text>
</g>
<!-- Rhttps://github.com/Eurohelp/id/Parkings/Antiguo&#45;Berri&#45;Rotatorio&#45;&gt;L179 -->
<g id="edge8" class="edge"><title>Rhttps://github.com/Eurohelp/id/Parkings/Antiguo&#45;Berri&#45;Rotatorio&#45;&gt;L179</title>
<path fill="none" stroke="black" d="M1066.04,-307.698C1076.48,-295.298 1090.71,-278.406 1102.39,-264.537"/>
<polygon fill="black" stroke="black" points="1105.16,-266.68 1108.92,-256.776 1099.8,-262.171 1105.16,-266.68"/>
</g>
<!-- Rhttps://github.com/Eurohelp/id/Parkings/fares/Antiguo&#45;Berri -->
<g id="node8" class="node"><title>Rhttps://github.com/Eurohelp/id/Parkings/fares/Antiguo&#45;Berri</title>
<g id="a_node8"><a xlink:href="https://github.com/Eurohelp/id/Parkings/fares/Antiguo-Berri" xlink:title="https://github.com/Eurohelp/id/Parkings/fares/Antiguo&#45;Berri">
<ellipse fill="none" stroke="blue" cx="1458.47" cy="-238.5" rx="289.749" ry="18"/>
<text text-anchor="middle" x="1458.47" y="-234.8" font-family="Times,serif" font-size="14.00">https://github.com/Eurohelp/id/Parkings/fares/Antiguo&#45;Berri</text>
</a>
</g>
</g>
<!-- Rhttps://github.com/Eurohelp/id/Parkings/Antiguo&#45;Berri&#45;Rotatorio&#45;&gt;Rhttps://github.com/Eurohelp/id/Parkings/fares/Antiguo&#45;Berri -->
<g id="edge9" class="edge"><title>Rhttps://github.com/Eurohelp/id/Parkings/Antiguo&#45;Berri&#45;Rotatorio&#45;&gt;Rhttps://github.com/Eurohelp/id/Parkings/fares/Antiguo&#45;Berri</title>
<path fill="none" stroke="black" d="M1129.94,-308.515C1198.89,-294.032 1299.09,-272.982 1370.68,-257.943"/>
<polygon fill="black" stroke="black" points="1371.52,-261.343 1380.58,-255.862 1370.08,-254.493 1371.52,-261.343"/>
</g>
<!-- L43.310188 -->
<g id="node9" class="node"><title>L43.310188</title>
<polygon fill="none" stroke="black" points="1765.97,-220.5 1765.97,-256.5 1858.97,-256.5 1858.97,-220.5 1765.97,-220.5"/>
<text text-anchor="middle" x="1812.47" y="-234.8" font-family="Times,serif" font-size="14.00">43.310188</text>
</g>
<!-- Rhttps://github.com/Eurohelp/id/Parkings/Antiguo&#45;Berri&#45;Rotatorio&#45;&gt;L43.310188 -->
<g id="edge10" class="edge"><title>Rhttps://github.com/Eurohelp/id/Parkings/Antiguo&#45;Berri&#45;Rotatorio&#45;&gt;L43.310188</title>
<path fill="none" stroke="black" d="M1291.09,-314.56C1425.81,-305.615 1596.79,-289.136 1755.86,-257.11"/>
<polygon fill="black" stroke="black" points="1756.74,-260.504 1765.84,-255.078 1755.34,-253.645 1756.74,-260.504"/>
<text text-anchor="middle" x="1667.97" y="-278.8" font-family="Times,serif" font-size="14.00">geo:lat</text>
</g>
<!-- L&#45;2.007963 -->
<g id="node10" class="node"><title>L&#45;2.007963</title>
<polygon fill="none" stroke="black" points="1876.97,-220.5 1876.97,-256.5 1965.97,-256.5 1965.97,-220.5 1876.97,-220.5"/>
<text text-anchor="middle" x="1921.47" y="-234.8" font-family="Times,serif" font-size="14.00">&#45;2.007963</text>
</g>
<!-- Rhttps://github.com/Eurohelp/id/Parkings/Antiguo&#45;Berri&#45;Rotatorio&#45;&gt;L&#45;2.007963 -->
<g id="edge11" class="edge"><title>Rhttps://github.com/Eurohelp/id/Parkings/Antiguo&#45;Berri&#45;Rotatorio&#45;&gt;L&#45;2.007963</title>
<path fill="none" stroke="black" d="M1330.79,-318.159C1444.54,-313.212 1577.1,-304.688 1696.47,-290 1770.14,-280.935 1790.84,-276.658 1866.75,-257.044"/>
<polygon fill="black" stroke="black" points="1868,-260.336 1876.8,-254.442 1866.25,-253.56 1868,-260.336"/>
<text text-anchor="middle" x="1821.97" y="-278.8" font-family="Times,serif" font-size="14.00">geo:long</text>
</g>
<!-- Rhttps://github.com/Eurohelp/id/Parkings/fares/Antiguo&#45;Berri/fare1/Antiguo&#45;Berri -->
<g id="node11" class="node"><title>Rhttps://github.com/Eurohelp/id/Parkings/fares/Antiguo&#45;Berri/fare1/Antiguo&#45;Berri</title>
<g id="a_node11"><a xlink:href="https://github.com/Eurohelp/id/Parkings/fares/Antiguo-Berri/fare1/Antiguo-Berri" xlink:title="https://github.com/Eurohelp/id/Parkings/fares/Antiguo&#45;Berri/fare1/Antiguo&#45;Berri">
<ellipse fill="none" stroke="blue" cx="875.469" cy="-165" rx="383.432" ry="18"/>
<text text-anchor="middle" x="875.469" y="-161.3" font-family="Times,serif" font-size="14.00">https://github.com/Eurohelp/id/Parkings/fares/Antiguo&#45;Berri/fare1/Antiguo&#45;Berri</text>
</a>
</g>
</g>
<!-- Rhttps://github.com/Eurohelp/id/Parkings/fares/Antiguo&#45;Berri&#45;&gt;Rhttps://github.com/Eurohelp/id/Parkings/fares/Antiguo&#45;Berri/fare1/Antiguo&#45;Berri -->
<g id="edge12" class="edge"><title>Rhttps://github.com/Eurohelp/id/Parkings/fares/Antiguo&#45;Berri&#45;&gt;Rhttps://github.com/Eurohelp/id/Parkings/fares/Antiguo&#45;Berri/fare1/Antiguo&#45;Berri</title>
<path fill="none" stroke="black" d="M1333.76,-222.205C1240.39,-210.755 1112.62,-195.085 1015.71,-183.199"/>
<polygon fill="black" stroke="black" points="1015.89,-179.695 1005.54,-181.952 1015.04,-186.643 1015.89,-179.695"/>
</g>
<!-- Rhttps://github.com/Eurohelp/id/Parkings/fares/Antiguo&#45;Berri/fare2/Antiguo&#45;Berri -->
<g id="node12" class="node"><title>Rhttps://github.com/Eurohelp/id/Parkings/fares/Antiguo&#45;Berri/fare2/Antiguo&#45;Berri</title>
<g id="a_node12"><a xlink:href="https://github.com/Eurohelp/id/Parkings/fares/Antiguo-Berri/fare2/Antiguo-Berri" xlink:title="https://github.com/Eurohelp/id/Parkings/fares/Antiguo&#45;Berri/fare2/Antiguo&#45;Berri">
<ellipse fill="none" stroke="blue" cx="1660.47" cy="-165" rx="383.432" ry="18"/>
<text text-anchor="middle" x="1660.47" y="-161.3" font-family="Times,serif" font-size="14.00">https://github.com/Eurohelp/id/Parkings/fares/Antiguo&#45;Berri/fare2/Antiguo&#45;Berri</text>
</a>
</g>
</g>
<!-- Rhttps://github.com/Eurohelp/id/Parkings/fares/Antiguo&#45;Berri&#45;&gt;Rhttps://github.com/Eurohelp/id/Parkings/fares/Antiguo&#45;Berri/fare2/Antiguo&#45;Berri -->
<g id="edge13" class="edge"><title>Rhttps://github.com/Eurohelp/id/Parkings/fares/Antiguo&#45;Berri&#45;&gt;Rhttps://github.com/Eurohelp/id/Parkings/fares/Antiguo&#45;Berri/fare2/Antiguo&#45;Berri</title>
<path fill="none" stroke="black" d="M1505.83,-220.736C1534.87,-210.457 1572.25,-197.227 1602.98,-186.349"/>
<polygon fill="black" stroke="black" points="1604.45,-189.543 1612.71,-182.906 1602.11,-182.944 1604.45,-189.543"/>
</g>
<!-- Rhttps://github.com/Eurohelp/id/Parkings/fares/Antiguo&#45;Berri/fare1/Price -->
<g id="node13" class="node"><title>Rhttps://github.com/Eurohelp/id/Parkings/fares/Antiguo&#45;Berri/fare1/Price</title>
<g id="a_node13"><a xlink:href="https://github.com/Eurohelp/id/Parkings/fares/Antiguo-Berri/fare1/Price" xlink:title="https://github.com/Eurohelp/id/Parkings/fares/Antiguo&#45;Berri/fare1/Price">
<ellipse fill="none" stroke="blue" cx="344.469" cy="-92" rx="344.439" ry="18"/>
<text text-anchor="middle" x="344.469" y="-88.3" font-family="Times,serif" font-size="14.00">https://github.com/Eurohelp/id/Parkings/fares/Antiguo&#45;Berri/fare1/Price</text>
</a>
</g>
</g>
<!-- Rhttps://github.com/Eurohelp/id/Parkings/fares/Antiguo&#45;Berri/fare1/Antiguo&#45;Berri&#45;&gt;Rhttps://github.com/Eurohelp/id/Parkings/fares/Antiguo&#45;Berri/fare1/Price -->
<g id="edge14" class="edge"><title>Rhttps://github.com/Eurohelp/id/Parkings/fares/Antiguo&#45;Berri/fare1/Antiguo&#45;Berri&#45;&gt;Rhttps://github.com/Eurohelp/id/Parkings/fares/Antiguo&#45;Berri/fare1/Price</title>
<path fill="none" stroke="black" d="M754.977,-147.889C671.091,-136.673 559.346,-121.731 473.625,-110.269"/>
<polygon fill="black" stroke="black" points="473.945,-106.781 463.569,-108.925 473.017,-113.719 473.945,-106.781"/>
</g>
<!-- Rhttps://github.com/Eurohelp/id/Parkings/fares/Antiguo&#45;Berri/fare1/Time -->
<g id="node14" class="node"><title>Rhttps://github.com/Eurohelp/id/Parkings/fares/Antiguo&#45;Berri/fare1/Time</title>
<g id="a_node14"><a xlink:href="https://github.com/Eurohelp/id/Parkings/fares/Antiguo-Berri/fare1/Time" xlink:title="https://github.com/Eurohelp/id/Parkings/fares/Antiguo&#45;Berri/fare1/Time">
<ellipse fill="none" stroke="blue" cx="1757.47" cy="-92" rx="343.339" ry="18"/>
<text text-anchor="middle" x="1757.47" y="-88.3" font-family="Times,serif" font-size="14.00">https://github.com/Eurohelp/id/Parkings/fares/Antiguo&#45;Berri/fare1/Time</text>
</a>
</g>
</g>
<!-- Rhttps://github.com/Eurohelp/id/Parkings/fares/Antiguo&#45;Berri/fare1/Antiguo&#45;Berri&#45;&gt;Rhttps://github.com/Eurohelp/id/Parkings/fares/Antiguo&#45;Berri/fare1/Time -->
<g id="edge15" class="edge"><title>Rhttps://github.com/Eurohelp/id/Parkings/fares/Antiguo&#45;Berri/fare1/Antiguo&#45;Berri&#45;&gt;Rhttps://github.com/Eurohelp/id/Parkings/fares/Antiguo&#45;Berri/fare1/Time</title>
<path fill="none" stroke="black" d="M1059.29,-149.202C1208.46,-137.195 1417.97,-120.33 1568.5,-108.212"/>
<polygon fill="black" stroke="black" points="1569.09,-111.675 1578.78,-107.384 1568.53,-104.698 1569.09,-111.675"/>
</g>
<!-- Rhttps://github.com/Eurohelp/id/Parkings/fares/Antiguo&#45;Berri/fare2/Price -->
<g id="node15" class="node"><title>Rhttps://github.com/Eurohelp/id/Parkings/fares/Antiguo&#45;Berri/fare2/Price</title>
<g id="a_node15"><a xlink:href="https://github.com/Eurohelp/id/Parkings/fares/Antiguo-Berri/fare2/Price" xlink:title="https://github.com/Eurohelp/id/Parkings/fares/Antiguo&#45;Berri/fare2/Price">
<ellipse fill="none" stroke="blue" cx="1051.47" cy="-92" rx="344.439" ry="18"/>
<text text-anchor="middle" x="1051.47" y="-88.3" font-family="Times,serif" font-size="14.00">https://github.com/Eurohelp/id/Parkings/fares/Antiguo&#45;Berri/fare2/Price</text>
</a>
</g>
</g>
<!-- Rhttps://github.com/Eurohelp/id/Parkings/fares/Antiguo&#45;Berri/fare2/Antiguo&#45;Berri&#45;&gt;Rhttps://github.com/Eurohelp/id/Parkings/fares/Antiguo&#45;Berri/fare2/Price -->
<g id="edge16" class="edge"><title>Rhttps://github.com/Eurohelp/id/Parkings/fares/Antiguo&#45;Berri/fare2/Antiguo&#45;Berri&#45;&gt;Rhttps://github.com/Eurohelp/id/Parkings/fares/Antiguo&#45;Berri/fare2/Price</title>
<path fill="none" stroke="black" d="M1524.56,-148.155C1426.78,-136.755 1295.13,-121.407 1195.54,-109.796"/>
<polygon fill="black" stroke="black" points="1195.73,-106.295 1185.39,-108.614 1194.92,-113.248 1195.73,-106.295"/>
</g>
<!-- Rhttps://github.com/Eurohelp/id/Parkings/fares/Antiguo&#45;Berri/fare2/Time -->
<g id="node16" class="node"><title>Rhttps://github.com/Eurohelp/id/Parkings/fares/Antiguo&#45;Berri/fare2/Time</title>
<g id="a_node16"><a xlink:href="https://github.com/Eurohelp/id/Parkings/fares/Antiguo-Berri/fare2/Time" xlink:title="https://github.com/Eurohelp/id/Parkings/fares/Antiguo&#45;Berri/fare2/Time">
<ellipse fill="none" stroke="blue" cx="2461.47" cy="-92" rx="343.339" ry="18"/>
<text text-anchor="middle" x="2461.47" y="-88.3" font-family="Times,serif" font-size="14.00">https://github.com/Eurohelp/id/Parkings/fares/Antiguo&#45;Berri/fare2/Time</text>
</a>
</g>
</g>
<!-- Rhttps://github.com/Eurohelp/id/Parkings/fares/Antiguo&#45;Berri/fare2/Antiguo&#45;Berri&#45;&gt;Rhttps://github.com/Eurohelp/id/Parkings/fares/Antiguo&#45;Berri/fare2/Time -->
<g id="edge17" class="edge"><title>Rhttps://github.com/Eurohelp/id/Parkings/fares/Antiguo&#45;Berri/fare2/Antiguo&#45;Berri&#45;&gt;Rhttps://github.com/Eurohelp/id/Parkings/fares/Antiguo&#45;Berri/fare2/Time</title>
<path fill="none" stroke="black" d="M1831.32,-148.856C1964.9,-137.016 2149.95,-120.613 2284.96,-108.646"/>
<polygon fill="black" stroke="black" points="2285.34,-112.125 2295,-107.756 2284.73,-105.153 2285.34,-112.125"/>
</g>
<!-- L0.60 -->
<g id="node17" class="node"><title>L0.60</title>
<polygon fill="none" stroke="black" points="448.469,-0.5 448.469,-36.5 502.469,-36.5 502.469,-0.5 448.469,-0.5"/>
<text text-anchor="middle" x="475.469" y="-14.8" font-family="Times,serif" font-size="14.00">0.60</text>
</g>
<!-- Rhttps://github.com/Eurohelp/id/Parkings/fares/Antiguo&#45;Berri/fare1/Price&#45;&gt;L0.60 -->
<g id="edge18" class="edge"><title>Rhttps://github.com/Eurohelp/id/Parkings/fares/Antiguo&#45;Berri/fare1/Price&#45;&gt;L0.60</title>
<path fill="none" stroke="black" d="M375.515,-74.0555C394.673,-63.5986 419.33,-50.1409 439.361,-39.2082"/>
<polygon fill="black" stroke="black" points="441.101,-42.2458 448.202,-34.3827 437.747,-36.1014 441.101,-42.2458"/>
</g>
<!-- Rhttp://dbpedia.org/resource/Euro -->
<g id="node18" class="node"><title>Rhttp://dbpedia.org/resource/Euro</title>
<g id="a_node18"><a xlink:href="http://dbpedia.org/resource/Euro" xlink:title="http://dbpedia.org/resource/Euro">
<ellipse fill="none" stroke="blue" cx="727.469" cy="-18.5" rx="163.571" ry="18"/>
<text text-anchor="middle" x="727.469" y="-14.8" font-family="Times,serif" font-size="14.00">http://dbpedia.org/resource/Euro</text>
</a>
</g>
</g>
<!-- Rhttps://github.com/Eurohelp/id/Parkings/fares/Antiguo&#45;Berri/fare1/Price&#45;&gt;Rhttp://dbpedia.org/resource/Euro -->
<g id="edge19" class="edge"><title>Rhttps://github.com/Eurohelp/id/Parkings/fares/Antiguo&#45;Berri/fare1/Price&#45;&gt;Rhttp://dbpedia.org/resource/Euro</title>
<path fill="none" stroke="black" d="M432.818,-74.5067C494.447,-63.0015 576.392,-47.7037 638.218,-36.1618"/>
<polygon fill="black" stroke="black" points="639.162,-39.5462 648.35,-34.2704 637.877,-32.665 639.162,-39.5462"/>
</g>
<!-- L15 -->
<g id="node19" class="node"><title>L15</title>
<polygon fill="none" stroke="black" points="1911.47,-0.5 1911.47,-36.5 1965.47,-36.5 1965.47,-0.5 1911.47,-0.5"/>
<text text-anchor="middle" x="1938.47" y="-14.8" font-family="Times,serif" font-size="14.00">15</text>
</g>
<!-- Rhttps://github.com/Eurohelp/id/Parkings/fares/Antiguo&#45;Berri/fare1/Time&#45;&gt;L15 -->
<g id="edge20" class="edge"><title>Rhttps://github.com/Eurohelp/id/Parkings/fares/Antiguo&#45;Berri/fare1/Time&#45;&gt;L15</title>
<path fill="none" stroke="black" d="M1800.36,-74.0555C1831.26,-61.849 1872.52,-45.5535 1901.87,-33.9586"/>
<polygon fill="black" stroke="black" points="1903.32,-37.1487 1911.33,-30.2194 1900.75,-30.6382 1903.32,-37.1487"/>
</g>
<!-- Rhttp://dbpedia.org/resource/Minute -->
<g id="node20" class="node"><title>Rhttp://dbpedia.org/resource/Minute</title>
<g id="a_node20"><a xlink:href="http://dbpedia.org/resource/Minute" xlink:title="http://dbpedia.org/resource/Minute">
<ellipse fill="none" stroke="blue" cx="2188.47" cy="-18.5" rx="174.669" ry="18"/>
<text text-anchor="middle" x="2188.47" y="-14.8" font-family="Times,serif" font-size="14.00">http://dbpedia.org/resource/Minute</text>
</a>
</g>
</g>
<!-- Rhttps://github.com/Eurohelp/id/Parkings/fares/Antiguo&#45;Berri/fare1/Time&#45;&gt;Rhttp://dbpedia.org/resource/Minute -->
<g id="edge21" class="edge"><title>Rhttps://github.com/Eurohelp/id/Parkings/fares/Antiguo&#45;Berri/fare1/Time&#45;&gt;Rhttp://dbpedia.org/resource/Minute</title>
<path fill="none" stroke="black" d="M1855.54,-74.7308C1925.74,-63.0851 2019.87,-47.4688 2090.13,-35.8131"/>
<polygon fill="black" stroke="black" points="2091.03,-39.2126 2100.32,-34.1231 2089.88,-32.3069 2091.03,-39.2126"/>
</g>
<!-- Rhttps://github.com/Eurohelp/id/Parkings/fares/Antiguo&#45;Berri/fare2/Price&#45;&gt;L0.60 -->
<g id="edge22" class="edge"><title>Rhttps://github.com/Eurohelp/id/Parkings/fares/Antiguo&#45;Berri/fare2/Price&#45;&gt;L0.60</title>
<path fill="none" stroke="black" d="M874.581,-76.5384C779.379,-67.5592 660.128,-54.3888 554.469,-37 540.798,-34.75 525.934,-31.636 512.826,-28.6577"/>
<polygon fill="black" stroke="black" points="513.279,-25.1699 502.747,-26.3175 511.696,-31.9885 513.279,-25.1699"/>
</g>
<!-- Rhttps://github.com/Eurohelp/id/Parkings/fares/Antiguo&#45;Berri/fare2/Price&#45;&gt;Rhttp://dbpedia.org/resource/Euro -->
<g id="edge23" class="edge"><title>Rhttps://github.com/Eurohelp/id/Parkings/fares/Antiguo&#45;Berri/fare2/Price&#45;&gt;Rhttp://dbpedia.org/resource/Euro</title>
<path fill="none" stroke="black" d="M976.323,-74.4167C925.481,-63.1969 858.434,-48.4012 806.745,-36.9944"/>
<polygon fill="black" stroke="black" points="807.47,-33.5703 796.951,-34.8331 805.962,-40.4058 807.47,-33.5703"/>
</g>
<!-- Rhttps://github.com/Eurohelp/id/Parkings/fares/Antiguo&#45;Berri/fare2/Time&#45;&gt;L15 -->
<g id="edge24" class="edge"><title>Rhttps://github.com/Eurohelp/id/Parkings/fares/Antiguo&#45;Berri/fare2/Time&#45;&gt;L15</title>
<path fill="none" stroke="black" d="M2288.88,-76.428C2202.95,-67.6991 2097.76,-54.7872 2004.47,-37 1994.98,-35.1902 1984.84,-32.7586 1975.43,-30.2847"/>
<polygon fill="black" stroke="black" points="1976.13,-26.8497 1965.56,-27.6111 1974.3,-33.6058 1976.13,-26.8497"/>
</g>
<!-- Rhttps://github.com/Eurohelp/id/Parkings/fares/Antiguo&#45;Berri/fare2/Time&#45;&gt;Rhttp://dbpedia.org/resource/Minute -->
<g id="edge25" class="edge"><title>Rhttps://github.com/Eurohelp/id/Parkings/fares/Antiguo&#45;Berri/fare2/Time&#45;&gt;Rhttp://dbpedia.org/resource/Minute</title>
<path fill="none" stroke="black" d="M2429.56,-74.0543C2415.71,-67.2883 2399.11,-59.946 2383.47,-55 2357.17,-46.6845 2328.22,-40.096 2300.86,-34.9683"/>
<polygon fill="black" stroke="black" points="2301.33,-31.4956 2290.86,-33.1447 2300.07,-38.382 2301.33,-31.4956"/>
</g>
</g>
</svg>
